<?xml version="1.0" encoding="utf-8"?>
<!-- Generator: Adobe Illustrator 15.1.0, SVG Export Plug-In . SVG Version: 6.00 Build 0)  -->
<!DOCTYPE svg PUBLIC "-//W3C//DTD SVG 1.1//EN" "http://www.w3.org/Graphics/SVG/1.1/DTD/svg11.dtd">
<svg version="1.1" id="Layer_1" xmlns="http://www.w3.org/2000/svg" xmlns:xlink="http://www.w3.org/1999/xlink" x="0px" y="0px"
	 width="405px" height="120px" viewBox="-135 -40 405 120" enable-background="new -135 -40 405 120" xml:space="preserve">
<g>
	<path fill="#FFFFFF" d="M268.235,66.103c0,6.366-5.156,11.522-11.534,11.522h-377.474c-6.375,0-11.549-5.156-11.549-11.522v-91.887
		c0-6.364,5.174-11.538,11.549-11.538h377.471c6.381,0,11.534,5.174,11.534,11.538L268.235,66.103L268.235,66.103z"/>
	<path fill="#A6A6A6" d="M256.701,80.305h-377.474c-7.843,0-14.227-6.366-14.227-14.202v-91.884c0-7.84,6.384-14.218,14.227-14.218
		h377.471c7.833,0,14.226,6.378,14.226,14.218v91.884C270.93,73.938,264.537,80.305,256.701,80.305L256.701,80.305z"/>
	<path d="M268.235,66.103c0,6.366-5.156,11.522-11.534,11.522h-377.474c-6.375,0-11.549-5.156-11.549-11.522v-91.887
		c0-6.364,5.174-11.538,11.549-11.538h377.471c6.381,0,11.534,5.174,11.534,11.538L268.235,66.103L268.235,66.103z"/>
	<path fill="#FFFFFF" d="M-44.36,19.521c-0.086-9.697,7.94-14.414,8.307-14.634C-40.6-1.742-47.645-2.646-50.122-2.718
		c-5.917-0.623-11.658,3.54-14.672,3.54c-3.075,0-7.717-3.48-12.72-3.378c-6.439,0.1-12.462,3.827-15.764,9.616
		c-6.817,11.802-1.733,29.146,4.798,38.686c3.267,4.675,7.085,9.89,12.083,9.704c4.889-0.197,6.715-3.114,12.614-3.114
		c5.847,0,7.561,3.114,12.657,2.997c5.248-0.08,8.551-4.692,11.704-9.407c3.775-5.351,5.291-10.63,5.352-10.9
		C-34.192,34.983-44.257,31.141-44.36,19.521z"/>
	<path fill="#FFFFFF" d="M-53.986-8.994c2.628-3.289,4.427-7.762,3.928-12.303c-3.806,0.169-8.564,2.632-11.305,5.85
		c-2.425,2.833-4.591,7.479-4.031,11.848C-61.12-3.281-56.73-5.758-53.986-8.994z"/>
	
		<linearGradient id="SVGID_1_" gradientUnits="userSpaceOnUse" x1="352.7109" y1="397.2314" x2="352.7109" y2="288.7901" gradientTransform="matrix(1 0 0 1 -189.9902 -316.5996)">
		<stop  offset="0" style="stop-color:#1A1A1A;stop-opacity:0.1"/>
		<stop  offset="0.1235" style="stop-color:#212121;stop-opacity:0.1506"/>
		<stop  offset="0.3085" style="stop-color:#353535;stop-opacity:0.2265"/>
		<stop  offset="0.5321" style="stop-color:#575757;stop-opacity:0.3181"/>
		<stop  offset="0.7834" style="stop-color:#858585;stop-opacity:0.4212"/>
		<stop  offset="1" style="stop-color:#B3B3B3;stop-opacity:0.51"/>
	</linearGradient>
	<path display="none" fill="url(#SVGID_1_)" d="M256.701-40H54.515l79.193,120.305h122.993c7.832,0,14.226-6.366,14.226-14.208
		v-91.878C270.93-33.622,264.537-40,256.701-40z"/>
	<g>
		<path fill="#FFFFFF" d="M26.451,54.779h-6.833l-3.743-11.758H2.868l-3.565,11.758h-6.652L5.542,14.742h7.96L26.451,54.779z
			 M14.748,38.086l-3.384-10.453c-0.357-1.069-1.031-3.585-2.019-7.543H9.224c-0.396,1.703-1.031,4.217-1.901,7.543L3.996,38.086
			H14.748z"/>
		<path fill="#FFFFFF" d="M59.539,39.989c0,4.913-1.332,8.791-4.001,11.641c-2.389,2.535-5.359,3.802-8.899,3.802
			c-3.824,0-6.574-1.363-8.244-4.096v15.148H31.98V35.4c0-3.085-0.081-6.246-0.238-9.489h5.641l0.358,4.577h0.121
			c2.139-3.449,5.385-5.174,9.741-5.174c3.407,0,6.249,1.346,8.523,4.04C58.399,32.051,59.539,35.595,59.539,39.989z M53.004,40.225
			c0-2.809-0.631-5.127-1.902-6.951c-1.387-1.898-3.249-2.85-5.583-2.85c-1.582,0-3.02,0.528-4.306,1.574
			c-1.287,1.052-2.13,2.427-2.523,4.131c-0.198,0.793-0.298,1.439-0.298,1.951v4.818c0,2.095,0.645,3.866,1.932,5.317
			c1.289,1.445,2.96,2.168,5.018,2.168c2.417,0,4.297-0.934,5.641-2.791C52.331,45.73,53.004,43.274,53.004,40.225z"/>
		<path fill="#FFFFFF" d="M92.744,39.989c0,4.913-1.334,8.791-4.002,11.641c-2.392,2.535-5.358,3.802-8.902,3.802
			c-3.822,0-6.572-1.363-8.244-4.096v15.148h-6.413V35.4c0-3.085-0.081-6.246-0.238-9.489h5.641l0.358,4.577h0.12
			c2.136-3.449,5.383-5.174,9.742-5.174c3.402,0,6.246,1.346,8.526,4.04C91.601,32.051,92.744,35.595,92.744,39.989z M86.207,40.225
			c0-2.809-0.635-5.127-1.904-6.951c-1.387-1.898-3.243-2.85-5.579-2.85c-1.583,0-3.021,0.528-4.31,1.574
			c-1.287,1.052-2.127,2.427-2.521,4.131c-0.196,0.793-0.303,1.439-0.303,1.951v4.818c0,2.095,0.646,3.866,1.931,5.317
			c1.287,1.439,2.959,2.168,5.024,2.168c2.418,0,4.298-0.934,5.641-2.791C85.531,45.73,86.207,43.274,86.207,40.225z"/>
		<path fill="#FFFFFF" d="M129.868,43.551c0,3.408-1.189,6.179-3.558,8.317c-2.606,2.335-6.243,3.505-10.906,3.505
			c-4.31,0-7.762-0.832-10.368-2.494l1.483-5.345c2.813,1.663,5.903,2.494,9.267,2.494c2.418,0,4.299-0.546,5.642-1.633
			c1.346-1.09,2.023-2.545,2.023-4.363c0-1.628-0.561-2.991-1.665-4.102c-1.111-1.104-2.947-2.139-5.523-3.085
			c-7.011-2.614-10.519-6.439-10.519-11.47c0-3.284,1.24-5.973,3.711-8.077c2.474-2.099,5.753-3.149,9.833-3.149
			c3.644,0,6.679,0.635,9.088,1.901l-1.61,5.229c-2.268-1.228-4.827-1.842-7.691-1.842c-2.263,0-4.04,0.557-5.31,1.664
			c-1.066,0.989-1.609,2.196-1.609,3.627c0,1.581,0.617,2.892,1.845,3.92c1.066,0.948,3.009,1.979,5.82,3.09
			c3.446,1.387,5.979,3.009,7.601,4.866C129.055,38.465,129.868,40.783,129.868,43.551z"/>
		<path fill="#FFFFFF" d="M151.131,30.724h-7.072V44.74c0,3.563,1.246,5.345,3.743,5.345c1.146,0,2.098-0.098,2.85-0.3l0.177,4.871
			c-1.264,0.473-2.927,0.711-4.986,0.711c-2.535,0-4.513-0.775-5.943-2.321c-1.425-1.545-2.139-4.137-2.139-7.782V30.712h-4.21
			v-4.813h4.21v-5.287l6.299-1.901v7.188h7.072V30.724z"/>
		<path fill="#FFFFFF" d="M182.967,40.107c0,4.437-1.27,8.079-3.805,10.929c-2.65,2.933-6.176,4.396-10.571,4.396
			c-4.242,0-7.615-1.404-10.13-4.213c-2.516-2.809-3.772-6.355-3.772-10.63c0-4.475,1.302-8.138,3.89-10.988
			c2.595-2.85,6.091-4.277,10.485-4.277c4.237,0,7.639,1.41,10.216,4.219C181.741,32.269,182.967,35.788,182.967,40.107z
			 M176.314,40.254c0-2.645-0.569-4.912-1.716-6.811c-1.345-2.291-3.272-3.438-5.764-3.438c-2.568,0-4.542,1.146-5.882,3.438
			c-1.152,1.898-1.722,4.208-1.722,6.931c0,2.647,0.569,4.922,1.722,6.813c1.387,2.295,3.319,3.44,5.829,3.44
			c2.45,0,4.371-1.172,5.764-3.496C175.725,45.189,176.314,42.904,176.314,40.254z"/>
		<path fill="#FFFFFF" d="M203.823,31.552c-0.635-0.117-1.313-0.177-2.021-0.177c-2.256,0-4.001,0.847-5.229,2.557
			c-1.066,1.504-1.602,3.405-1.602,5.699v15.148h-6.413V35.001c0-3.323-0.062-6.357-0.186-9.087h5.585l0.235,5.523h0.18
			c0.679-1.901,1.745-3.429,3.205-4.575c1.431-1.034,2.973-1.548,4.636-1.548c0.594,0,1.129,0.044,1.604,0.117L203.823,31.552
			L203.823,31.552z"/>
		<path fill="#FFFFFF" d="M232.51,38.979c0,1.149-0.076,2.119-0.235,2.909h-19.24c0.07,2.853,1.004,5.035,2.791,6.54
			c1.621,1.343,3.719,2.016,6.293,2.016c2.85,0,5.447-0.45,7.785-1.363l1.005,4.451c-2.732,1.189-5.958,1.783-9.678,1.783
			c-4.478,0-7.991-1.316-10.547-3.946c-2.551-2.632-3.831-6.173-3.831-10.603c0-4.349,1.187-7.974,3.566-10.865
			c2.491-3.088,5.858-4.63,10.095-4.63c4.16,0,7.31,1.542,9.449,4.63C231.657,32.345,232.51,35.377,232.51,38.979z M226.393,37.316
			c0.044-1.904-0.376-3.544-1.245-4.931c-1.111-1.789-2.818-2.679-5.109-2.679c-2.098,0-3.805,0.869-5.106,2.614
			c-1.066,1.387-1.701,3.056-1.897,4.989L226.393,37.316L226.393,37.316z"/>
	</g>
	<g>
		<path fill="#FFFFFF" d="M11.655,0.414H8.294L6.457-5.366H0.063L-1.69,0.414h-3.27l6.336-19.679h3.91L11.655,0.414z M5.903-7.791
			L4.24-12.929c-0.175-0.527-0.496-1.751-0.993-3.707H3.187c-0.206,0.845-0.497,2.073-0.936,3.707L0.617-7.791H5.903z"/>
		<path fill="#FFFFFF" d="M27.499-13.775L22.125,0.414h-3.066L13.86-13.775h3.388l2.425,7.503c0.408,1.254,0.758,2.452,1.02,3.589
			h0.086c0.235-1.02,0.584-2.217,1.021-3.589l2.395-7.503H27.499z"/>
		<path fill="#FFFFFF" d="M38.936,0.414L38.701-1.22h-0.087c-0.962,1.315-2.365,1.956-4.146,1.956c-2.54,0-4.351-1.782-4.351-4.177
			c0-3.502,3.037-5.312,8.292-5.312v-0.263c0-1.867-0.993-2.803-2.948-2.803c-1.403,0-2.629,0.351-3.706,1.052l-0.642-2.073
			c1.314-0.818,2.948-1.227,4.877-1.227c3.707,0,5.578,1.955,5.578,5.869v5.227c0,1.432,0.061,2.542,0.204,3.388L38.936,0.414
			L38.936,0.414z M38.497-6.654c-3.505,0-5.256,0.849-5.256,2.861c0,1.488,0.906,2.217,2.161,2.217c1.605,0,3.095-1.225,3.095-2.888
			V-6.654L38.497-6.654z"/>
		<path fill="#FFFFFF" d="M48.59-16.113c-1.05,0-1.869-0.818-1.869-1.898s0.846-1.869,1.929-1.869c1.08,0,1.956,0.789,1.926,1.869
			C50.576-16.871,49.761-16.113,48.59-16.113z M50.227,0.414h-3.152v-14.189h3.152V0.414z"/>
		<path fill="#FFFFFF" d="M58.982,0.414H55.83v-20.698h3.152V0.414z"/>
		<path fill="#FFFFFF" d="M72.381,0.414L72.146-1.22h-0.085c-0.964,1.315-2.365,1.956-4.147,1.956c-2.539,0-4.35-1.782-4.35-4.177
			c0-3.502,3.035-5.312,8.291-5.312v-0.263c0-1.867-0.993-2.803-2.948-2.803c-1.401,0-2.629,0.351-3.706,1.052l-0.644-2.076
			c1.315-0.818,2.948-1.227,4.877-1.227c3.705,0,5.579,1.955,5.579,5.869v5.227c0,1.432,0.063,2.542,0.2,3.388H72.381z
			 M71.943-6.654c-3.506,0-5.256,0.849-5.256,2.861c0,1.488,0.905,2.217,2.16,2.217c1.606,0,3.097-1.225,3.097-2.888V-6.654z"/>
		<path fill="#FFFFFF" d="M87.784,0.735c-2.013,0-3.499-0.849-4.463-2.512H83.26l-0.179,2.19h-2.686
			C80.48-0.724,80.51-2.012,80.51-3.41v-16.875h3.158v8.586h0.06c0.934-1.578,2.45-2.365,4.524-2.365
			c3.417,0,5.811,2.92,5.811,7.181C94.063-2.478,91.404,0.735,87.784,0.735z M87.144-11.588c-1.813,0-3.476,1.576-3.476,3.767v2.483
			c0,1.955,1.493,3.562,3.42,3.562c2.362,0,3.77-1.926,3.77-4.992C90.854-9.628,89.392-11.588,87.144-11.588z"/>
		<path fill="#FFFFFF" d="M101.878,0.414h-3.149v-20.698h3.149V0.414z"/>
		<path fill="#FFFFFF" d="M119.042-5.922h-9.467c0.065,2.687,1.84,4.203,4.466,4.203c1.404,0,2.688-0.235,3.825-0.671l0.491,2.19
			c-1.343,0.583-2.918,0.875-4.757,0.875c-4.439,0-7.065-2.804-7.065-7.151c0-4.351,2.688-7.621,6.713-7.621
			c3.616,0,5.899,2.687,5.899,6.746C119.159-6.798,119.13-6.301,119.042-5.922z M116.15-8.17c0-2.19-1.11-3.737-3.126-3.737
			c-1.813,0-3.237,1.576-3.449,3.737H116.15z"/>
		<path fill="#FFFFFF" d="M138.15,0.735c-4.146,0-6.834-3.095-6.834-7.3c0-4.379,2.744-7.502,7.072-7.502
			c4.08,0,6.83,2.948,6.83,7.271C145.219-2.36,142.387,0.735,138.15,0.735z M138.271-11.762c-2.276,0-3.736,2.13-3.736,5.108
			c0,2.922,1.489,5.052,3.707,5.052c2.219,0,3.705-2.278,3.705-5.112C141.946-9.602,140.489-11.762,138.271-11.762z"/>
		<path fill="#FFFFFF" d="M162.171,0.414h-3.149v-8.147c0-2.509-0.963-3.767-2.861-3.767c-1.868,0-3.155,1.605-3.155,3.474v8.439
			h-3.149V-9.72c0-1.254-0.035-2.599-0.117-4.059h2.773l0.146,2.19h0.088c0.841-1.516,2.568-2.481,4.495-2.481
			c2.974,0,4.93,2.277,4.93,5.983V0.414L162.171,0.414z"/>
		<path fill="#FFFFFF" d="M182.799-11.411h-3.47v6.89c0,1.754,0.611,2.629,1.836,2.629c0.556,0,1.025-0.06,1.401-0.146l0.089,2.394
			c-0.614,0.235-1.434,0.351-2.45,0.351c-2.486,0-3.967-1.37-3.967-4.963v-7.154h-2.068v-2.365h2.068v-2.599l3.091-0.936v3.532h3.47
			V-11.411z"/>
		<path fill="#FFFFFF" d="M199.495,0.414h-3.155v-8.087c0-2.54-0.963-3.824-2.861-3.824c-1.634,0-3.149,1.109-3.149,3.356v8.554
			h-3.155v-20.698h3.155v8.523h0.062c0.99-1.547,2.424-2.308,4.263-2.308c3.006,0,4.842,2.334,4.842,6.043V0.414z"/>
		<path fill="#FFFFFF" d="M215.607-5.922h-9.46c0.059,2.687,1.833,4.203,4.463,4.203c1.407,0,2.688-0.235,3.822-0.671l0.493,2.19
			c-1.34,0.583-2.92,0.875-4.76,0.875c-4.439,0-7.065-2.804-7.065-7.151c0-4.351,2.688-7.621,6.713-7.621
			c3.62,0,5.899,2.687,5.899,6.746C215.725-6.798,215.695-6.301,215.607-5.922z M212.717-8.17c0-2.19-1.108-3.737-3.123-3.737
			c-1.813,0-3.241,1.576-3.446,3.737H212.717z"/>
	</g>
</g>
</svg>
