<svg xmlns="http://www.w3.org/2000/svg" fill-rule="evenodd" stroke-linejoin="round" stroke-miterlimit="2" clip-rule="evenodd" viewBox="0 0 167 167" id="phone">
  <path d="M127.583,20.4C127.583,14.615 122.886,9.917 117.1,9.917L49.9,9.917C44.114,9.917 39.417,14.615 39.417,20.4L39.417,147.6C39.417,153.385 44.114,158.083 49.9,158.083L117.1,158.083C122.886,158.083 127.583,153.385 127.583,147.6C127.583,147.6 127.583,20.4 127.583,20.4ZM123.417,138.085L123.417,147.6C123.417,151.087 120.587,153.917 117.1,153.917C117.1,153.917 49.9,153.917 49.9,153.917C46.413,153.917 43.583,151.087 43.583,147.6L43.583,138.085L123.417,138.085ZM83.5,142C85.708,142 87.5,143.792 87.5,146C87.5,148.208 85.708,150 83.5,150C81.292,150 79.5,148.208 79.5,146C79.5,143.792 81.292,142 83.5,142ZM43.583,30.085L43.583,133.915L123.417,133.915L123.417,30.085L43.583,30.085ZM123.417,25.915L43.583,25.915L43.583,20.4C43.583,16.913 46.413,14.083 49.9,14.083C49.9,14.083 117.1,14.083 117.1,14.083C120.587,14.083 123.417,16.913 123.417,20.4L123.417,25.915ZM77.5,22.082L89.5,22.082C90.649,22.082 91.582,21.149 91.582,20C91.582,18.851 90.649,17.918 89.5,17.918L77.5,17.918C76.351,17.918 75.418,18.851 75.418,20C75.418,21.149 76.351,22.082 77.5,22.082Z"></path>
</svg>
